<?xml version="1.0" encoding="utf-8"?>
<!-- Generator: Adobe Illustrator 24.0.1, SVG Export Plug-In . SVG Version: 6.00 Build 0)  -->
<svg version="1.1" id="Layer_1" xmlns="http://www.w3.org/2000/svg" xmlns:xlink="http://www.w3.org/1999/xlink" x="0px" y="0px"
	 viewBox="0 0 24 24" style="enable-background:new 0 0 24 24;" xml:space="preserve">
<style type="text/css">
	.st0{fill:none;stroke:#383838;stroke-linecap:round;}
	
		.st1{fill-rule:evenodd;clip-rule:evenodd;fill:#8CBE8C;stroke:#555753;stroke-width:1;stroke-linecap:round;stroke-linejoin:round;}
	.st2{fill:none;stroke:#383838;stroke-linecap:round;stroke-linejoin:round;}
	.st3{fill:none;stroke:#173C72;stroke-width:2;stroke-linecap:round;stroke-miterlimit:10;}
</style>
<g transform="translate(0 -8)">
	<path class="st0" d="M8.3,18c-4.5,5.3,1.5,7.3,4.9,10.4"/>
	<path class="st1" d="M8,9.5c-2.8,0-5.3,1.3-6.3,4.2c-1,2.9,1.2,8.2,5.9,5.8c1-0.5,1.9-0.9,2.7-1.1l1-8.5C10.3,9.7,9.1,9.5,8,9.5z"
		/>
	<path class="st1" d="M13.9,10.8l0.5,7.5c1.6,0.7,2.1,2.2,3.2,2.2c2.4,0,4.9-1.7,4.9-3.9c0-1.9,0.1-3.8-1-4.9
		C19.6,9.9,18.6,12.5,13.9,10.8z"/>
	<path class="st2" d="M9.5,12.9c2.2-1.4,3.9-1,5.6-0.4"/>
	<path class="st2" d="M9.3,15.1c2.1-1,4.1-1,6.2-0.4"/>
	<path class="st2" d="M9.2,17.5c2.2-1.1,4.5-1,6.7-0.5"/>
</g>
<path class="st3" d="M6.4,22.2c0.5-0.1,1-0.4,1.4-0.7c1.8-1.3,2.3-3.7,1.1-5.4s-3.6-2-5.4-0.7c-1.1,0.8-1.7,2.1-1.8,3.3"/>
</svg>
