<?xml version="1.0" encoding="utf-8"?>
<!-- Generator: Adobe Illustrator 24.0.1, SVG Export Plug-In . SVG Version: 6.00 Build 0)  -->
<svg version="1.1" id="Layer_1"
    xmlns="http://www.w3.org/2000/svg"
    xmlns:xlink="http://www.w3.org/1999/xlink" x="0px" y="0px" viewBox="0 0 24 24" style="enable-background:new 0 0 24 24;" xml:space="preserve">
    <style type="text/css">
    .st0{opacity:0.8;}
    .st1{fill-rule:evenodd;clip-rule:evenodd;fill:#D00000;stroke:#4A0000;stroke-width:0.4;}
    .st2{fill-rule:evenodd;clip-rule:evenodd;fill:#D5D5D5;stroke:#717171;stroke-width:0.6;stroke-linejoin:round;}
    .st3{fill-rule:evenodd;clip-rule:evenodd;fill:#BEBEBE;stroke:#555753;stroke-width:1;stroke-linecap:round;stroke-linejoin:round;}
    .st4{fill-rule:evenodd;clip-rule:evenodd;fill:#8CBE8C;stroke:#555753;stroke-width:1;stroke-linecap:round;stroke-linejoin:round;}
    .st5{fill:none;stroke:#173C72;stroke-width:2;stroke-linecap:round;stroke-miterlimit:10;}
    .st6{fill:none;stroke:#000000;stroke-miterlimit:10;}
    </style>
    <g transform="translate(0 -8)" class="st0">
        <path class="st1" d="M19.7,25.9c-0.6-1.1-2.1-2.3-4.2-3.1l-0.5,0.8c2,0.8,3.3,1.8,3.8,2.7s0.3,1.7,0,2c-0.2,0.2-0.3,0.2-0.6,0.3
        c-0.2,0-0.6-0.1-1-0.3c-0.8-0.5-1.7-1.8-2.5-4.3l-1,0.3c0.8,2.5,1.8,4,2.8,4.7c0.5,0.4,1.1,0.5,1.6,0.5c0.5,0,1-0.3,1.3-0.6
        C20.2,28.1,20.3,27,19.7,25.9z"/>
        <path class="st2" d="M15.5,22.8l-1.9-1.3L10.4,9.4c-1.8,1-1,5.4-0.1,8.4l1.3,4.9l2.9,2L15.5,22.8z"/>
        <path class="st3" d="M8,9.5c-2.8,0-5.3,1.3-6.3,4.2c-1,2.9,1.2,8.2,5.9,5.8c1-0.5,1.9-0.9,2.7-1.1l1-8.5C10.3,9.7,9.1,9.5,8,9.5z" />
        <path class="st4" d="M13.9,10.8l0.5,7.5c1.6,0.7,2.1,2.2,3.2,2.2c2.4,0,4.9-1.7,4.9-3.9c0-1.9,0.1-3.8-1-4.9
        C19.6,9.9,18.6,12.5,13.9,10.8z"/>
        <path class="st1" d="M12.5,25.1l-1,0c-0.1,2.5-0.7,4.1-1.3,4.8c-0.3,0.3-0.6,0.5-0.9,0.5c-0.3,0-0.5,0-0.7-0.2
        c-0.4-0.3-0.8-1-0.5-1.9c0.3-1,1.1-2.2,3-3.3l-0.5-0.7c-2.1,1.3-3.1,2.7-3.5,3.9S7.1,30.4,8,31c0.4,0.3,0.9,0.4,1.5,0.3
        c0.5-0.1,1.1-0.4,1.5-0.9C11.8,29.5,12.4,27.7,12.5,25.1z"/>
        <path class="st2" d="M10.3,24.7l6.2-15.6c0,5.7-2.4,11-4.4,16.5L10.3,24.7z"/>
    </g>
    <path class="st5" d="M6.4,22.2c0.5-0.1,1-0.4,1.4-0.7c1.8-1.3,2.3-3.7,1.1-5.4s-3.6-2-5.4-0.7c-1.1,0.8-1.7,2.1-1.8,3.3"/>
    <path class="st6" d="M-9.8,24.5"/>
    <path class="st6" d="M-13.7,11.2"/>
</svg>
